PathFileType	4	(x/y/z)	S05_P20_T24
DataRate	CameraRate	NumFrames	NumMarkers	Units	OrigDataRate	OrigDataStartFrame	OrigNumFrames
240	240	8	50	mm	240	312	356
Frame#	Time	Sternum			R.Acromium			L.Acromium			Top.Head			R.ASIS			L.ASIS			R.PSIS			L.PSIS			R.Great.Tro			L.Great.Tro			R.Iliac.Crest			L.Iliac.Crest			V.Sacral			R.Thigh.Upper.Post			R.Thigh.Lower.Ant			R.Thigh.Lower.Post			R.Thigh.Upper.Ant			R.Knee.Lat			R.Knee.Med			R.Shank.Upper.Post			R.Shank.Lower.Ant			R.Shank.Lower.Post			R.Shank.Upper.Ant			R.Ankle.Lat			R.Ankle.Med			R.Heel.Upper			R.Heel.Med			R.Heel.Lat			R.Toe.Lat			R.Toe.Med			R.Toe.Tip			L.Thigh.Upper.Post			L.Thigh.Lower.Ant			L.Thigh.Lower.Post			L.Thigh.Upper.Ant			L.Knee.Lat			L.Shank.Upper.Post			L.Shank.Lower.Ant			L.Shank.Lower.Post			L.Shank.Upper.Ant			L.Ankle.Lat			L.Ankle.Med			L.Heel.Upper			L.Heel.Med			L.Heel.Lat			L.Toe.Lat			L.Toe.Med			L.Toe.Tip			Cervical.Spine			Back			
		X1	Y1	Z1	X2	Y2	Z2	X3	Y3	Z3	X4	Y4	Z4	X5	Y5	Z5	X6	Y6	Z6	X7	Y7	Z7	X8	Y8	Z8	X9	Y9	Z9	X10	Y10	Z10	X11	Y11	Z11	X12	Y12	Z12	X13	Y13	Z13	X14	Y14	Z14	X15	Y15	Z15	X16	Y16	Z16	X17	Y17	Z17	X18	Y18	Z18	X19	Y19	Z19	X20	Y20	Z20	X21	Y21	Z21	X22	Y22	Z22	X23	Y23	Z23	X24	Y24	Z24	X25	Y25	Z25	X26	Y26	Z26	X27	Y27	Z27	X28	Y28	Z28	X29	Y29	Z29	X30	Y30	Z30	X31	Y31	Z31	X32	Y32	Z32	X33	Y33	Z33	X34	Y34	Z34	X35	Y35	Z35	X36	Y36	Z36	X37	Y37	Z37	X38	Y38	Z38	X39	Y39	Z39	X40	Y40	Z40	X41	Y41	Z41	X42	Y42	Z42	X43	Y43	Z43	X44	Y44	Z44	X45	Y45	Z45	X46	Y46	Z46	X47	Y47	Z47	X48	Y48	Z48	X49	Y49	Z49	X50	Y50	Z50	

312	1.2958	333.16	1276.3	327.65	240.43	1547.1	471.25	238.31	1548.7	143.84	225.47	1837.7	300.49	253.3	1027.4	453.6	257.31	1022.9	205.23	53.07	1040.2	370.02	55.571	1045.1	278.46	184.44	949.78	523.84	163.09	945.15	133.58	164.02	1110.7	491.7	171.21	1101.3	158.74	42.012	1007.3	335.88	337.56	766.92	523.43	412.7	725.72	467.6	367.01	682.65	504.79	378.81	806.97	485.03	391.62	590.12	488.32	402.67	581.46	357.91	301.17	358.59	462.86	355.85	288.03	464.5	295.11	284.53	443.89	362.81	363.44	482.27	330.51	187.81	443.21	349.44	213.97	358.75	263.45	139.84	372.13	276.93	109.23	344.09	266.13	109.71	408.09	421.24	90.875	481.5	470.97	104.09	370.54	526.36	122.31	424.7	148.96	707.32	148.45	223.49	629.58	174.95	153.11	613.52	169.08	226.86	718.92	154.13	155.65	520.94	179.94	69.188	326.97	188.52	130.03	261.82	191.48	60.403	256.61	209.26	134.83	331.35	176.62	77.24	116.64	220.12	116.56	131.72	304.15	17.841	70.796	276.14	31.838	44.261	306.96	18.599	43.815	246.98	196.19	37.975	179.05	228.53	50.423	297.02	287.59	58.067	237.84	185.31	1580.1	311.83	67.898	1306.1	314.49
313	1.3	338.29	1275.8	327.59	245.61	1546.5	471.42	243.62	1548.4	144.05	230.64	1837.2	301.18	258.58	1026.9	453.51	262.34	1022.5	205.15	58.287	1039.9	370.25	60.703	1044.9	278.71	189.89	949.22	523.81	167.81	944.97	133.59	169.38	1110.3	491.74	176.21	1100.9	158.79	47.178	1007.1	336.09	341.83	765.43	523.19	416.61	723.81	467.22	370.78	681	504.53	383.21	805.25	484.69	395.52	588.69	487.86	406.4	579.83	357.49	310.77	354.74	463.16	367.33	285.66	464.83	306.64	280.5	444.29	372.28	361.29	482.53	344.8	184.57	443.83	362.84	211.05	359.35	278.84	134.8	372.97	293.09	104.58	344.89	282.42	104.73	408.9	438.14	89.76	481.89	487.29	104.43	370.9	542.3	124	424.97	152.17	707.34	148.52	226.2	629.15	175.04	155.71	613.53	169.2	230.12	718.42	154.16	157.48	520.86	180.07	70.181	327.23	188.69	130.76	261.84	191.56	61.14	256.91	209.44	135.82	331.35	176.71	77.484	116.76	220.28	116.87	131.71	304.32	17.943	70.914	276.31	31.941	44.308	307.08	18.673	43.963	247.1	196.23	37.95	179.06	228.67	50.243	297.07	287.74	57.784	237.85	190.55	1579.6	312.01	73.053	1305.7	314.49
314	1.3042	343.42	1275.2	327.55	250.8	1545.8	471.59	248.92	1548.2	144.28	235.81	1836.7	301.88	263.88	1026.4	453.45	267.4	1022	205.09	63.524	1039.6	370.5	65.854	1044.6	278.98	195.35	948.56	523.78	172.55	944.75	133.61	174.76	1109.7	491.81	181.24	1100.6	158.85	52.361	1006.8	336.32	346.07	763.81	522.95	420.43	721.72	466.81	374.48	679.21	504.29	387.54	803.37	484.31	399.35	587.14	487.38	410.02	578.06	357.04	320.24	350.95	463.5	378.63	283.38	465.16	318.01	276.57	444.72	381.59	359.16	482.78	358.89	181.48	444.45	376.01	208.27	359.94	294.03	129.96	373.83	309.03	100.15	345.71	298.49	99.969	409.75	454.76	88.817	482.25	503.27	104.91	371.22	557.89	125.81	425.19	155.43	707.33	148.59	228.96	628.7	175.13	158.38	613.51	169.32	233.43	717.91	154.17	159.38	520.77	180.2	71.22	327.48	188.85	131.51	261.84	191.64	61.91	257.21	209.62	136.86	331.34	176.79	77.731	116.88	220.45	117.19	131.7	304.48	18.052	71.022	276.49	32.046	44.353	307.2	18.746	44.105	247.23	196.27	37.924	179.07	228.8	50.063	297.11	287.89	57.499	237.87	195.79	1579.1	312.21	78.209	1305.2	314.51
315	1.3083	348.56	1274.6	327.52	255.99	1545.1	471.79	254.22	1547.8	144.53	240.98	1836.1	302.59	269.2	1025.8	453.4	272.48	1021.5	205.05	68.779	1039.2	370.76	71.026	1044.3	279.26	200.82	947.82	523.75	177.33	944.5	133.63	180.18	1109.1	491.89	186.29	1100.2	158.93	57.563	1006.5	336.56	350.27	762.06	522.72	424.17	719.49	466.38	378.1	677.28	504.06	391.83	801.34	483.91	403.1	585.47	486.88	413.55	576.15	356.56	329.55	347.24	463.84	389.73	281.19	465.48	329.19	272.76	445.17	390.74	357.08	483.02	372.74	178.55	445.05	388.95	205.62	360.52	308.98	125.35	374.71	324.71	95.949	346.54	314.31	95.447	410.61	471.06	88.044	482.59	518.89	105.54	371.51	573.11	127.73	425.36	158.73	707.29	148.66	231.77	628.23	175.21	161.1	613.48	169.43	236.78	717.37	154.18	161.35	520.66	180.31	72.308	327.73	189.01	132.3	261.82	191.73	62.715	257.51	209.79	137.95	331.31	176.87	77.983	117	220.63	117.52	131.69	304.65	18.167	71.121	276.67	32.156	44.396	307.33	18.819	44.242	247.38	196.3	37.896	179.08	228.93	49.883	297.15	288.05	57.213	237.88	201.03	1578.6	312.43	83.367	1304.7	314.55
316	1.3125	353.7	1273.9	327.5	261.19	1544.3	471.99	259.5	1547.5	144.79	246.15	1835.4	303.31	274.54	1025.1	453.37	277.58	1020.9	205.02	74.052	1038.7	371.04	76.218	1044	279.55	206.3	947.01	523.73	182.13	944.21	133.66	185.63	1108.5	491.99	191.36	1099.7	159.02	62.784	1006.1	336.81	354.44	760.21	522.51	427.84	717.12	465.92	381.68	675.24	503.84	396.07	799.2	483.48	406.79	583.69	486.37	416.99	574.12	356.04	338.71	343.61	464.19	400.6	279.09	465.79	340.16	269.07	445.63	399.7	355.05	483.24	386.33	175.77	445.65	401.63	203.11	361.08	323.66	120.95	375.59	340.09	91.967	347.38	329.84	91.163	411.49	487.01	87.437	482.91	534.12	106.27	371.77	587.92	129.73	425.48	162.09	707.22	148.73	234.64	627.74	175.28	163.88	613.41	169.53	240.18	716.81	154.19	163.39	520.53	180.42	73.45	327.97	189.17	133.12	261.8	191.82	63.56	257.81	209.96	139.09	331.26	176.95	78.241	117.12	220.8	117.87	131.67	304.83	18.287	71.214	276.86	32.269	44.437	307.47	18.891	44.375	247.53	196.34	37.868	179.09	229.07	49.702	297.19	288.2	56.926	237.89	206.27	1578	312.66	88.529	1304.1	314.6
317	1.3167	358.85	1273.2	327.5	266.39	1543.4	472.22	264.78	1547.1	145.08	251.32	1834.7	304.04	279.89	1024.4	453.36	282.71	1020.3	205.02	79.342	1038.2	371.32	81.429	1043.6	279.86	211.77	946.11	523.71	186.97	943.89	133.69	191.11	1107.8	492.1	196.45	1099.2	159.12	68.022	1005.6	337.07	358.59	758.26	522.31	431.44	714.63	465.43	385.2	673.1	503.63	400.27	796.94	483.04	410.42	581.84	485.83	420.36	571.99	355.49	347.68	340.08	464.53	411.22	277.08	466.09	350.89	265.53	446.08	408.46	353.08	483.44	399.62	173.14	446.23	414.01	200.74	361.62	338.03	116.77	376.47	355.13	88.205	348.21	345.05	87.119	412.37	502.56	86.989	483.21	548.91	107.11	372.01	602.29	131.79	425.57	165.5	707.12	148.8	237.58	627.23	175.34	166.73	613.32	169.63	243.64	716.23	154.18	165.52	520.37	180.53	74.65	328.2	189.32	133.99	261.75	191.91	64.448	258.1	210.12	140.29	331.19	177.03	78.506	117.24	220.98	118.23	131.66	305	18.412	71.301	277.07	32.387	44.476	307.63	18.963	44.504	247.7	196.37	37.841	179.1	229.2	49.519	297.22	288.34	56.637	237.9	211.51	1577.3	312.91	93.694	1303.5	314.67
318	1.3208	364.01	1272.4	327.52	271.59	1542.6	472.45	270.03	1546.6	145.39	256.5	1834	304.79	285.25	1023.6	453.38	287.86	1019.7	205.03	84.648	1037.7	371.63	86.659	1043.1	280.18	217.24	945.14	523.7	191.84	943.53	133.73	196.62	1107	492.23	201.57	1098.7	159.24	73.279	1005.1	337.34	362.74	756.22	522.12	434.99	712.05	464.92	388.7	670.87	503.42	404.44	794.59	482.58	414.01	579.91	485.28	423.68	569.77	354.9	356.45	336.66	464.85	421.56	275.17	466.38	361.36	262.12	446.53	417	351.16	483.62	412.56	170.67	446.79	426.08	198.5	362.13	352.05	112.82	377.33	369.8	84.659	349.03	359.88	83.312	413.25	517.66	86.687	483.5	563.25	108.03	372.24	616.2	133.9	425.64	168.98	706.99	148.87	240.59	626.7	175.39	169.66	613.2	169.73	247.17	715.62	154.17	167.74	520.19	180.63	75.912	328.43	189.48	134.91	261.7	192	65.382	258.39	210.28	141.55	331.09	177.1	78.78	117.36	221.17	118.6	131.64	305.19	18.543	71.385	277.29	32.51	44.515	307.8	19.034	44.632	247.88	196.4	37.815	179.12	229.33	49.334	297.25	288.49	56.346	237.9	216.74	1576.6	313.18	98.864	1302.8	314.75
319	1.325	369.18	1271.6	327.56	276.79	1541.6	472.71	275.28	1546.1	145.73	261.69	1833.2	305.54	290.63	1022.8	453.41	293.04	1019	205.06	89.969	1037.1	371.94	91.909	1042.7	280.51	222.71	944.1	523.69	196.74	943.15	133.77	202.16	1106.1	492.38	206.71	1098.1	159.37	78.554	1004.5	337.62	366.88	754.12	521.95	438.51	709.4	464.39	392.18	668.57	503.23	408.59	792.17	482.11	417.57	577.93	484.71	426.95	567.5	354.28	365	333.35	465.15	431.6	273.36	466.64	371.55	258.87	446.96	425.31	349.3	483.77	425.13	168.35	447.32	437.8	196.39	362.61	365.7	109.08	378.17	384.06	81.321	349.82	374.3	79.738	414.1	532.29	86.517	483.77	577.11	109.01	372.46	629.61	136.03	425.69	172.53	706.82	148.94	243.68	626.15	175.44	172.67	613.04	169.82	250.75	714.99	154.15	170.05	519.97	180.72	77.242	328.65	189.63	135.88	261.62	192.09	66.368	258.68	210.44	142.87	330.98	177.18	79.063	117.49	221.36	119	131.62	305.38	18.677	71.47	277.52	32.638	44.554	307.98	19.105	44.759	248.08	196.43	37.791	179.14	229.47	49.145	297.28	288.64	56.054	237.91	221.97	1575.9	313.48	104.04	1302	314.85
